<svg xmlns="http://www.w3.org/2000/svg" xmlns:xlink="http://www.w3.org/1999/xlink" width="500" zoomAndPan="magnify" viewBox="0 0 375 374.999991" height="500" preserveAspectRatio="xMidYMid meet" version="1.0"><defs><g/><clipPath id="b3d7857538"><path d="M 58.5 64 L 316.5 64 L 316.5 312.867188 L 58.5 312.867188 Z M 58.5 64 " clip-rule="nonzero"/></clipPath><clipPath id="176303dea4"><rect x="0" width="125" y="0" height="32"/></clipPath><clipPath id="ffa3d3e6c5"><rect x="0" width="104" y="0" height="13"/></clipPath></defs><g clip-path="url(#b3d7857538)"><path fill="#979f76" d="M 76.953125 145.601562 C 82.597656 130.53125 91.101562 116.851562 101.800781 105.226562 C 109.109375 96.039062 117.53125 88.113281 127.964844 81.613281 C 134.265625 77.6875 141.332031 74.867188 147.25 70.335938 C 148.6875 69.238281 156.503906 62.355469 156.105469 64.671875 C 155.238281 69.699219 151.4375 74.5 149.164062 78.96875 C 144.007812 89.105469 138.363281 98.46875 129.761719 106.027344 C 111.914062 121.707031 90.621094 130.628906 79.472656 150.582031 C 76.9375 160.15625 75.589844 170.214844 75.589844 180.585938 C 75.589844 245.289062 128.117188 297.816406 192.820312 297.816406 C 257.519531 297.816406 310.046875 245.289062 310.046875 180.585938 C 310.046875 145.035156 294.1875 113.15625 269.15625 91.644531 C 297.972656 114.289062 316.5 149.464844 316.5 188.933594 C 316.5 257.195312 261.082031 312.617188 192.820312 312.617188 C 124.554688 312.617188 69.136719 257.195312 69.136719 188.933594 C 69.136719 177.816406 70.605469 167.039062 73.363281 156.789062 C 71.652344 147.910156 66.097656 140.054688 63.542969 131.117188 C 60.1875 119.371094 61.558594 106.921875 61.179688 94.867188 C 60.992188 88.949219 59.082031 83.308594 58.84375 77.40625 C 58.816406 76.800781 58.507812 71.992188 59.214844 71.914062 C 59.289062 71.90625 59.695312 73.242188 59.757812 73.417969 C 60.277344 74.816406 60.878906 76.183594 61.554688 77.515625 C 63.375 81.109375 65.859375 84.394531 68.21875 87.644531 C 71.917969 92.753906 75.011719 97.84375 76.894531 103.898438 C 78.722656 109.789062 78.761719 116.585938 78.714844 122.695312 C 78.660156 130.535156 78.019531 138.046875 76.953125 145.601562 Z M 76.953125 145.601562 " fill-opacity="1" fill-rule="evenodd"/></g><g transform="matrix(1, 0, 0, 1, 130, 172)"><g clip-path="url(#176303dea4)"><g fill="#515640" fill-opacity="1"><g transform="translate(1.217567, 23.992253)"><g><path d="M 18.140625 4.296875 L 18.140625 -21.890625 L 21.609375 -21.890625 L 21.609375 -12.71875 L 24.625 -12.71875 L 24.625 -21.890625 L 28.09375 -21.890625 L 28.09375 4.609375 L 24.625 4.609375 L 24.625 -9.53125 L 21.609375 -9.53125 L 21.609375 4.296875 Z M 7.4375 -21.265625 L 11 -21.265625 L 11 -14.078125 C 11 -12.828125 11.15625 -11.597656 11.46875 -10.390625 C 11.789062 -9.179688 12.328125 -8.082031 13.078125 -7.09375 C 13.828125 -6.113281 14.847656 -5.316406 16.140625 -4.703125 L 16.140625 -1.203125 C 14.316406 -1.921875 12.8125 -2.925781 11.625 -4.21875 C 10.445312 -5.519531 9.644531 -6.835938 9.21875 -8.171875 C 9.007812 -7.316406 8.566406 -6.425781 7.890625 -5.5 C 7.222656 -4.582031 6.40625 -3.742188 5.4375 -2.984375 C 4.476562 -2.222656 3.425781 -1.628906 2.28125 -1.203125 L 2.28125 -4.640625 C 4 -5.441406 5.285156 -6.640625 6.140625 -8.234375 C 7.003906 -9.835938 7.4375 -11.796875 7.4375 -14.109375 Z M 7.4375 -21.265625 "/></g></g></g><g fill="#515640" fill-opacity="1"><g transform="translate(30.028811, 23.992253)"><g><path d="M 25.96875 -6.234375 L 25.96875 4.359375 L 22.34375 4.359375 L 22.34375 -3.109375 L 4.234375 -3.109375 L 4.234375 -6.234375 Z M 29.9375 -13.734375 L 25.96875 -13.734375 L 25.96875 -7.6875 L 22.34375 -7.6875 L 22.34375 -22.25 L 25.96875 -22.25 L 25.96875 -16.875 L 29.9375 -16.875 Z M 13.0625 -21.921875 L 16.4375 -21.921875 L 16.4375 -17.921875 C 16.4375 -16.566406 16.796875 -15.359375 17.515625 -14.296875 C 18.234375 -13.242188 19.078125 -12.441406 20.046875 -11.890625 L 20.046875 -8.265625 C 18.671875 -8.941406 17.5625 -9.710938 16.71875 -10.578125 C 15.875 -11.453125 15.226562 -12.300781 14.78125 -13.125 C 14.613281 -12.632812 14.316406 -12.101562 13.890625 -11.53125 C 13.460938 -10.957031 12.972656 -10.40625 12.421875 -9.875 C 11.867188 -9.351562 11.296875 -8.890625 10.703125 -8.484375 C 9.835938 -9.078125 9.050781 -9.753906 8.34375 -10.515625 C 7.632812 -11.273438 7.035156 -12.144531 6.546875 -13.125 C 5.972656 -12.019531 5.265625 -11.046875 4.421875 -10.203125 C 3.585938 -9.359375 2.554688 -8.660156 1.328125 -8.109375 L 1.328125 -11.828125 C 1.941406 -12.097656 2.523438 -12.523438 3.078125 -13.109375 C 3.628906 -13.691406 4.078125 -14.394531 4.421875 -15.21875 C 4.773438 -16.050781 4.953125 -16.953125 4.953125 -17.921875 L 4.953125 -21.921875 L 8.296875 -21.921875 L 8.296875 -17.890625 C 8.296875 -16.535156 8.554688 -15.40625 9.078125 -14.5 C 9.597656 -13.601562 10.128906 -12.878906 10.671875 -12.328125 C 11.222656 -12.835938 11.757812 -13.550781 12.28125 -14.46875 C 12.800781 -15.394531 13.0625 -16.546875 13.0625 -17.921875 Z M 13.0625 -21.921875 "/></g></g></g><g fill="#515640" fill-opacity="1"><g transform="translate(58.840056, 23.992253)"><g/></g></g><g fill="#515640" fill-opacity="1"><g transform="translate(66.367673, 23.992253)"><g><path d="M 29.9375 -9.59375 L 25.640625 -9.59375 L 25.640625 4.609375 L 22.03125 4.609375 L 22.03125 -21.890625 L 25.640625 -21.890625 L 25.640625 -12.8125 L 29.9375 -12.8125 Z M 0.671875 -11.765625 C 0.671875 -13.410156 1.03125 -14.921875 1.75 -16.296875 C 2.46875 -17.679688 3.503906 -18.785156 4.859375 -19.609375 C 6.210938 -20.429688 7.84375 -20.84375 9.75 -20.84375 C 11.6875 -20.84375 13.328125 -20.4375 14.671875 -19.625 C 16.015625 -18.8125 17.046875 -17.710938 17.765625 -16.328125 C 18.484375 -14.953125 18.84375 -13.429688 18.84375 -11.765625 C 18.84375 -10.085938 18.484375 -8.554688 17.765625 -7.171875 C 17.046875 -5.796875 16.015625 -4.703125 14.671875 -3.890625 C 13.328125 -3.078125 11.6875 -2.671875 9.75 -2.671875 C 7.84375 -2.671875 6.210938 -3.078125 4.859375 -3.890625 C 3.503906 -4.703125 2.46875 -5.796875 1.75 -7.171875 C 1.03125 -8.554688 0.671875 -10.085938 0.671875 -11.765625 Z M 4.328125 -11.765625 C 4.328125 -10.703125 4.515625 -9.71875 4.890625 -8.8125 C 5.273438 -7.914062 5.863281 -7.191406 6.65625 -6.640625 C 7.445312 -6.085938 8.476562 -5.8125 9.75 -5.8125 C 10.914062 -5.8125 11.898438 -6.085938 12.703125 -6.640625 C 13.515625 -7.191406 14.128906 -7.914062 14.546875 -8.8125 C 14.972656 -9.71875 15.1875 -10.703125 15.1875 -11.765625 C 15.1875 -12.816406 14.972656 -13.789062 14.546875 -14.6875 C 14.128906 -15.59375 13.515625 -16.320312 12.703125 -16.875 C 11.898438 -17.425781 10.914062 -17.703125 9.75 -17.703125 C 8.476562 -17.703125 7.445312 -17.425781 6.65625 -16.875 C 5.863281 -16.320312 5.273438 -15.59375 4.890625 -14.6875 C 4.515625 -13.789062 4.328125 -12.816406 4.328125 -11.765625 Z M 4.328125 -11.765625 "/></g></g></g><g fill="#515640" fill-opacity="1"><g transform="translate(95.178917, 23.992253)"><g><path d="M 23.828125 4.609375 L 23.828125 -21.890625 L 27.453125 -21.890625 L 27.453125 4.609375 Z M 1.96875 -11.765625 C 1.96875 -13.410156 2.328125 -14.921875 3.046875 -16.296875 C 3.765625 -17.679688 4.800781 -18.785156 6.15625 -19.609375 C 7.519531 -20.429688 9.15625 -20.84375 11.0625 -20.84375 C 12.988281 -20.84375 14.625 -20.4375 15.96875 -19.625 C 17.3125 -18.8125 18.34375 -17.710938 19.0625 -16.328125 C 19.789062 -14.953125 20.15625 -13.429688 20.15625 -11.765625 C 20.15625 -10.085938 19.789062 -8.554688 19.0625 -7.171875 C 18.34375 -5.796875 17.3125 -4.703125 15.96875 -3.890625 C 14.625 -3.078125 12.988281 -2.671875 11.0625 -2.671875 C 9.15625 -2.671875 7.519531 -3.078125 6.15625 -3.890625 C 4.800781 -4.703125 3.765625 -5.796875 3.046875 -7.171875 C 2.328125 -8.554688 1.96875 -10.085938 1.96875 -11.765625 Z M 5.625 -11.765625 C 5.625 -10.703125 5.8125 -9.71875 6.1875 -8.8125 C 6.570312 -7.914062 7.164062 -7.191406 7.96875 -6.640625 C 8.78125 -6.085938 9.8125 -5.8125 11.0625 -5.8125 C 12.226562 -5.8125 13.210938 -6.085938 14.015625 -6.640625 C 14.816406 -7.191406 15.429688 -7.914062 15.859375 -8.8125 C 16.285156 -9.71875 16.5 -10.703125 16.5 -11.765625 C 16.5 -12.816406 16.285156 -13.789062 15.859375 -14.6875 C 15.429688 -15.59375 14.816406 -16.320312 14.015625 -16.875 C 13.210938 -17.425781 12.226562 -17.703125 11.0625 -17.703125 C 9.8125 -17.703125 8.78125 -17.425781 7.96875 -16.875 C 7.164062 -16.320312 6.570312 -15.59375 6.1875 -14.6875 C 5.8125 -13.789062 5.625 -12.816406 5.625 -11.765625 Z M 5.625 -11.765625 "/></g></g></g></g></g><g transform="matrix(1, 0, 0, 1, 144, 214)"><g clip-path="url(#ffa3d3e6c5)"><g fill="#515640" fill-opacity="1"><g transform="translate(0.911623, 9.547642)"><g><path d="M 1.140625 0.375 L 1.140625 -8.28125 L 4.546875 -8.28125 C 5.210938 -8.28125 5.789062 -8.160156 6.28125 -7.921875 C 6.769531 -7.679688 7.148438 -7.34375 7.421875 -6.90625 C 7.691406 -6.476562 7.828125 -5.976562 7.828125 -5.40625 C 7.828125 -4.75 7.671875 -4.203125 7.359375 -3.765625 C 7.046875 -3.328125 6.625 -2.992188 6.09375 -2.765625 C 5.570312 -2.546875 4.992188 -2.4375 4.359375 -2.4375 L 2.59375 -2.4375 L 2.59375 0.375 Z M 2.59375 -3.75 L 4.421875 -3.75 C 5.003906 -3.75 5.46875 -3.894531 5.8125 -4.1875 C 6.164062 -4.488281 6.34375 -4.875 6.34375 -5.34375 C 6.34375 -5.875 6.164062 -6.273438 5.8125 -6.546875 C 5.46875 -6.816406 5.003906 -6.953125 4.421875 -6.953125 L 2.59375 -6.953125 Z M 2.59375 -3.75 "/></g></g></g><g fill="#515640" fill-opacity="1"><g transform="translate(14.027472, 9.547642)"><g><path d="M 1.140625 0.375 L 1.140625 -8.28125 L 2.59375 -8.28125 L 2.59375 -0.953125 L 7.1875 -0.953125 L 7.1875 0.375 Z M 1.140625 0.375 "/></g></g></g><g fill="#515640" fill-opacity="1"><g transform="translate(26.537599, 9.547642)"><g><path d="M 7.859375 0.375 L 6.90625 -1.859375 L 2.84375 -1.859375 L 1.90625 0.375 L 0.421875 0.375 L 4.21875 -8.34375 L 5.59375 -8.34375 L 9.390625 0.375 Z M 4.875 -6.65625 L 3.390625 -3.140625 L 6.359375 -3.140625 Z M 4.875 -6.65625 "/></g></g></g><g fill="#515640" fill-opacity="1"><g transform="translate(41.161601, 9.547642)"><g><path d="M 1.140625 0.375 L 1.140625 -8.28125 L 2.515625 -8.28125 L 7.234375 -2.1875 L 7.234375 -8.28125 L 8.65625 -8.28125 L 8.65625 0.375 L 7.421875 0.375 L 2.578125 -5.890625 L 2.578125 0.375 Z M 1.140625 0.375 "/></g></g></g><g fill="#515640" fill-opacity="1"><g transform="translate(55.785603, 9.547642)"><g><path d="M 3.28125 0.375 L 3.28125 -6.9375 L 0.515625 -6.9375 L 0.515625 -8.28125 L 7.53125 -8.28125 L 7.53125 -6.9375 L 4.765625 -6.9375 L 4.765625 0.375 Z M 3.28125 0.375 "/></g></g></g><g fill="#515640" fill-opacity="1"><g transform="translate(68.654228, 9.547642)"><g><path d="M 0.6875 -3.3125 L 0.6875 -4.640625 L 5.09375 -4.640625 L 5.09375 -3.3125 Z M 0.6875 -3.3125 "/></g></g></g><g fill="#515640" fill-opacity="1"><g transform="translate(79.446057, 9.547642)"><g><path d="M 7.859375 0.375 L 6.90625 -1.859375 L 2.84375 -1.859375 L 1.90625 0.375 L 0.421875 0.375 L 4.21875 -8.34375 L 5.59375 -8.34375 L 9.390625 0.375 Z M 4.875 -6.65625 L 3.390625 -3.140625 L 6.359375 -3.140625 Z M 4.875 -6.65625 "/></g></g></g><g fill="#515640" fill-opacity="1"><g transform="translate(94.070059, 9.547642)"><g><path d="M 1.21875 0.375 L 1.21875 -8.28125 L 2.6875 -8.28125 L 2.6875 0.375 Z M 1.21875 0.375 "/></g></g></g></g></g></svg>